<svg version="1.1" id="Layer_1" xmlns="http://www.w3.org/2000/svg" xmlns:xlink="http://www.w3.org/1999/xlink" x="0px" y="0px" width="100%" viewBox="0 0 1563 1563" enable-background="new 0 0 1563 1563" xml:space="preserve">

<path fill="#F4F4F4" opacity="1.000000" stroke="none" d="
M403.514648,720.616821 
	C459.646210,714.861938 516.021912,717.834717 572.257690,715.868042 
	C612.436890,714.462952 652.360229,710.930786 690.811890,698.015076 
	C700.727661,694.684387 710.436462,690.737549 720.963745,687.018555 
	C722.864380,687.483826 724.041748,688.004395 725.219116,688.524963 
	C725.088074,688.819824 724.864807,689.000793 724.042358,689.034790 
	C723.010071,689.456177 722.484680,689.910706 721.959351,690.365234 
	C700.615662,702.382690 677.550964,709.639160 653.779297,714.879944 
	C628.016052,720.559814 601.850830,723.286743 575.546997,724.003906 
	C536.079346,725.079956 496.588440,725.273315 457.114899,726.171448 
	C437.674164,726.613770 418.168457,727.088440 399.179260,732.070557 
	C396.555359,732.758972 393.452087,733.796448 391.816772,735.727478 
	C380.227478,749.412964 368.963135,763.373657 357.323456,777.578186 
	C359.685699,778.280273 362.622894,779.095581 365.523682,780.024719 
	C384.172791,785.997742 401.522705,794.394470 414.146790,809.855103 
	C418.976868,815.770569 422.338074,823.053772 425.493378,830.105347 
	C427.394714,834.354492 428.885132,837.640015 434.305359,836.127625 
	C436.012115,838.835571 435.253662,840.162964 432.712158,841.692688 
	C431.025879,842.707581 429.067871,845.064636 429.068451,846.820312 
	C429.077576,874.344238 417.338287,897.683289 403.028839,919.994690 
	C383.535034,950.389526 357.658234,973.888306 324.973785,989.443542 
	C303.176910,999.817200 280.235565,1004.775330 256.145172,999.885071 
	C240.635040,996.736572 227.936951,988.913635 221.203934,973.805725 
	C214.532913,958.836792 218.157486,944.815002 226.336899,931.637390 
	C237.533981,913.598145 253.973572,901.047180 271.835327,890.461548 
	C314.306641,865.291138 360.367188,849.587341 408.637726,840.018677 
	C416.135254,838.532349 416.194458,838.599182 414.079926,831.484131 
	C409.321564,815.473206 398.191803,804.546936 384.175629,796.911194 
	C374.058228,791.399353 362.873840,787.824036 352.074371,783.618713 
	C350.938385,783.176331 348.785522,783.871643 347.781555,784.784180 
	C331.694305,799.404724 314.098083,811.871033 295.123016,822.458801 
	C293.977234,823.098145 293.153076,825.303467 293.125305,826.797729 
	C292.933380,837.126953 293.081207,847.462341 292.919373,857.792542 
	C292.868195,861.058655 292.851837,864.829285 288.081696,865.033875 
	C284.699890,865.178955 282.809937,863.678284 282.840271,859.985168 
	C282.923523,849.844055 282.869019,839.701782 282.869019,828.883484 
	C276.288910,831.015198 270.459076,833.155334 264.488861,834.779358 
	C255.418488,837.246582 246.141754,838.319275 236.858932,836.211792 
	C224.533295,833.413635 219.206238,822.878601 223.611725,810.907104 
	C227.069122,801.512207 233.714569,794.572021 240.990997,788.178650 
	C244.728653,784.894592 248.969879,782.188599 252.930908,779.152710 
	C261.886200,772.289001 270.865906,765.454102 279.678864,758.411316 
	C280.900604,757.434875 281.875702,755.349182 281.882782,753.772156 
	C282.012939,724.800537 281.977997,695.828125 281.977997,664.953308 
	C274.048309,670.225708 266.961029,674.603333 260.250031,679.496887 
	C253.913910,684.117371 249.915710,690.665405 247.019257,697.890137 
	C246.528397,699.114502 246.293274,700.935852 245.386414,701.400024 
	C243.244370,702.496643 240.629593,703.798645 238.461670,703.445984 
	C235.366318,702.942444 234.925003,699.667908 236.337173,697.446777 
	C239.866425,691.895813 243.360504,686.140442 247.881012,681.440796 
	C256.506165,672.473755 267.230133,666.275146 278.514526,661.165344 
	C281.182861,659.957092 282.080627,658.485535 282.045715,655.560059 
	C281.884644,642.063171 282.034241,628.562927 281.959595,615.064453 
	C281.940125,611.547791 282.505341,608.480286 286.692078,608.315002 
	C291.272583,608.134216 291.943298,611.467529 291.942230,615.101624 
	C291.938263,628.261963 291.940643,641.422302 291.940643,654.834534 
	C301.102142,652.334595 309.913849,649.502625 318.917511,647.559937 
	C339.216766,643.180054 359.713898,640.779175 380.212158,646.012024 
	C386.068604,647.507019 391.837646,650.123230 397.037415,653.241455 
	C406.369049,658.837341 409.003357,667.791321 402.812073,676.636963 
	C396.790436,685.240173 389.706940,693.532837 381.612823,700.157471 
	C367.347748,711.832947 351.959076,722.135620 336.535095,733.396484 
	C335.492737,734.017334 334.956085,734.254822 334.419403,734.492310 
	C334.454834,734.639709 334.490234,734.787170 334.525635,734.934570 
	C335.465759,734.744934 336.405853,734.555298 337.345978,734.365662 
	C353.533600,730.631836 369.729370,726.932434 385.893188,723.098206 
	C387.179169,722.793213 388.731598,721.821594 389.339691,720.710632 
	C404.496674,693.019287 415.355988,663.921936 417.103241,632.063477 
	C417.976593,616.138977 416.669495,600.461792 408.716064,586.088989 
	C400.353668,570.976990 387.014740,563.451172 370.262756,562.086426 
	C342.685669,559.839844 317.463623,568.731750 292.926270,579.850098 
	C263.665283,593.108948 236.562759,609.870300 212.781082,631.621826 
	C199.799606,643.495117 188.414978,656.635498 182.144058,673.521667 
	C181.505966,675.239929 179.534988,677.081909 177.789215,677.643311 
	C173.969711,678.871460 171.045609,675.529297 173.021362,671.792908 
	C176.880005,664.495789 180.793533,657.025269 185.953125,650.654053 
	C206.652100,625.094360 232.474884,605.565735 260.728851,589.105469 
	C286.010986,574.376587 312.476318,562.532471 341.536011,557.537964 
	C358.107635,554.689758 374.649658,554.333191 390.723541,560.579407 
	C410.234039,568.161011 421.090729,583.094421 425.986359,602.763245 
	C432.233124,627.860291 428.626587,652.524902 420.485474,676.424255 
	C415.533295,690.961975 408.348999,704.739258 401.917603,719.476257 
	C402.283417,720.268494 402.899017,720.442627 403.514648,720.616821 
M334.701660,974.271851 
	C344.667969,966.539368 355.269135,959.489868 364.471466,950.935547 
	C385.131775,931.730042 399.609436,908.164612 410.166809,882.101318 
	C414.192383,872.163330 416.649017,861.935181 417.138916,851.198975 
	C417.348145,846.613586 415.383972,845.148560 411.141937,845.981445 
	C410.002228,846.205200 408.849762,846.366943 407.714813,846.611328 
	C371.360687,854.439209 336.367615,866.170166 303.260498,883.238464 
	C283.323944,893.516724 264.607574,905.518433 250.146362,923.060974 
	C241.661102,933.354187 235.555252,944.789490 234.620193,958.504150 
	C233.423538,976.055542 242.328506,988.553406 259.266571,993.281982 
	C269.505005,996.140198 279.590912,995.292542 289.827423,993.400269 
	C305.994446,990.411621 320.172363,982.871765 334.701660,974.271851 
M302.778229,744.336243 
	C326.753387,729.673035 350.907288,715.201904 372.215240,696.737549 
	C379.545624,690.385437 386.031738,682.819214 391.830170,675.010559 
	C397.010468,668.034363 394.869202,660.598633 387.145569,656.554993 
	C381.774567,653.743042 375.937744,651.272888 370.024170,650.148987 
	C353.087677,646.930054 336.205719,648.776611 319.605103,652.829224 
	C310.217834,655.120850 301.014526,658.166321 291.478699,660.945007 
	C292.037750,670.430481 292.839996,678.851746 292.967529,687.283264 
	C293.237000,705.096680 293.118195,722.915771 293.253204,740.731812 
	C293.273529,743.415161 293.803223,746.094604 294.157806,749.327698 
	C297.308167,747.537231 299.745331,746.152039 302.778229,744.336243 
M248.371902,793.855225 
	C246.170486,795.879211 243.817581,797.763489 241.797272,799.954529 
	C236.611115,805.578857 232.885910,811.940735 232.940018,819.900635 
	C232.979736,825.745911 235.989594,829.854919 241.676163,830.973022 
	C245.013840,831.629333 248.764084,832.069702 251.957687,831.217102 
	C260.886780,828.833557 269.616180,825.705872 278.438416,822.916016 
	C281.574066,821.924438 282.714142,820.005127 282.604584,816.626526 
	C282.233459,805.181824 282.136139,793.727478 282.003082,782.276001 
	C281.918304,774.978577 277.886963,772.483459 271.744476,776.604675 
	C263.903931,781.865173 256.476288,787.741150 248.371902,793.855225 
M300.963928,761.440796 
	C299.299408,762.186584 297.523743,762.760742 296.010468,763.740234 
	C295.045105,764.365051 294.468292,765.590210 293.717285,766.546204 
	C294.614899,767.202942 295.436157,768.039612 296.432953,768.462463 
	C297.314453,768.836365 298.391541,768.748047 299.382019,768.866028 
	C313.717407,770.574463 328.044434,772.360596 342.398254,773.896667 
	C344.252106,774.095032 346.929565,773.632507 348.063721,772.403748 
	C356.851837,762.882935 365.393555,753.132507 373.902863,743.358582 
	C375.179291,741.892456 375.889801,739.933655 376.862122,738.202759 
	C376.540405,737.807434 376.218689,737.412109 375.896973,737.016785 
	C350.485321,742.918518 325.706787,750.847778 300.963928,761.440796 
M336.466492,783.793579 
	C337.420013,782.743347 338.373505,781.693176 340.481506,779.371399 
	C325.469116,777.815674 311.799652,776.409973 298.133331,774.974670 
	C294.954803,774.640808 293.452881,776.079224 293.450775,779.194275 
	C293.442780,790.946106 293.447540,802.697998 293.447540,814.873352 
	C308.858337,806.157898 322.731995,795.715515 336.466492,783.793579 
M712.576538,692.514099 
	C712.576538,692.514099 712.476196,692.571411 712.576538,692.514099 
z" data-index="1" style="visibility: visible; opacity: 1;"></path>
<path fill="#F5F5F5" opacity="1.000000" stroke="none" d="
M731.942139,813.011353 
	C723.298035,812.988281 715.142517,812.975586 706.987061,812.950684 
	C706.661987,812.949646 706.337280,812.832031 705.327271,812.635315 
	C706.458374,811.931702 707.103760,811.310364 707.865051,811.090759 
	C715.454773,808.901306 716.070190,808.213013 716.139893,800.485718 
	C716.213318,792.330444 716.197937,784.174011 716.164429,776.018311 
	C716.134338,768.695801 715.481201,767.939575 708.052795,765.825928 
	C707.146362,765.567993 706.309753,765.064697 705.511719,763.900879 
	C710.290588,763.900879 715.071838,763.802307 719.847717,763.920227 
	C731.969971,764.219482 744.142456,764.045471 756.193237,765.159912 
	C765.280518,766.000244 769.488098,772.164368 768.053589,779.639954 
	C767.128967,784.458008 763.548218,786.579651 759.575867,787.833740 
	C754.904236,789.308655 749.995178,790.031616 744.943359,792.299622 
	C748.773499,792.771179 752.627258,793.109497 756.422119,793.780396 
	C757.917725,794.044800 759.739685,794.690979 760.609314,795.795959 
	C762.338074,797.992188 763.260132,800.819397 764.969055,803.036194 
	C767.593384,806.440369 770.600342,809.549561 773.258484,812.572021 
	C767.463867,812.572021 760.651489,812.572021 753.334290,812.572021 
	C750.399597,807.478027 747.206970,801.906433 743.985168,796.351746 
	C740.222778,789.865112 739.774048,789.683044 731.731323,791.071533 
	C729.304138,804.951660 730.686523,807.861145 741.731995,813.019592 
	C738.631592,813.019592 735.531128,813.019592 731.942139,813.011353 
M747.406677,787.211975 
	C752.970093,784.355896 753.558777,779.349731 752.903320,773.982544 
	C752.345581,769.415344 749.118042,766.784790 744.983765,766.191406 
	C740.623535,765.565674 736.103760,766.051208 731.539917,766.051208 
	C731.539917,773.623596 731.539917,781.161865 731.539917,789.439941 
	C736.908630,788.791565 741.812378,788.199341 747.406677,787.211975 
z" data-index="2" style="visibility: visible; opacity: 1;"></path>
<path fill="#F6F6F6" opacity="1.000000" stroke="none" d="
M989.002686,763.902283 
	C999.295166,764.250793 1009.099854,764.423218 1018.873169,765.069458 
	C1021.369446,765.234497 1024.036987,766.503662 1026.156372,767.952515 
	C1031.651367,771.708801 1031.502441,778.255005 1025.975464,781.970337 
	C1024.208252,783.158325 1022.165710,783.995911 1020.156982,784.747620 
	C1018.317139,785.436096 1016.353027,785.792358 1014.173767,786.366089 
	C1018.461426,787.685303 1022.571777,788.630554 1026.415649,790.220154 
	C1030.469971,791.896790 1033.193970,794.849121 1033.144043,799.734253 
	C1033.093262,804.683960 1030.552368,807.954773 1026.334717,809.841248 
	C1023.647522,811.043274 1020.636108,812.146179 1017.754944,812.185547 
	C1001.538940,812.407043 985.318359,812.292419 969.162842,812.292419 
	C969.180237,812.232605 969.200378,811.723694 969.360291,811.675049 
	C980.083252,808.418884 979.065918,807.937012 979.149048,797.610229 
	C979.208008,790.285034 979.203186,782.958069 979.113892,775.633301 
	C979.030151,768.754028 978.160889,767.731140 971.617004,765.938843 
	C970.697815,765.687134 969.816345,765.297607 968.985657,763.902283 
	C975.491516,763.902283 981.997375,763.902283 989.002686,763.902283 
M1007.816101,810.908936 
	C1009.216248,810.429321 1010.694702,810.104248 1012.002014,809.441467 
	C1016.285095,807.269958 1018.707336,801.901184 1017.881958,796.723816 
	C1017.098572,791.809692 1013.950195,788.867920 1009.321167,788.331543 
	C1004.462219,787.768494 999.487305,788.205627 994.384888,788.205627 
	C994.384888,795.814636 994.384888,803.212280 994.384888,810.942627 
	C998.725342,810.942627 1002.833923,810.942627 1007.816101,810.908936 
M994.161987,781.298767 
	C994.242920,782.744385 994.323853,784.190063 994.417969,785.871155 
	C997.524414,785.871155 1000.320923,785.961365 1003.107605,785.834534 
	C1004.583801,785.767273 1006.076477,785.439087 1007.503601,785.027344 
	C1012.348450,783.629761 1015.203613,779.569763 1014.930420,774.621704 
	C1014.667786,769.865967 1011.627075,766.681702 1006.186279,766.181274 
	C1002.310486,765.824829 998.375549,766.112122 994.161987,766.112122 
	C994.161987,771.093201 994.161987,775.715881 994.161987,781.298767 
z" data-index="3" style="visibility: visible; opacity: 1;"></path>
<path fill="#F6F6F6" opacity="1.000000" stroke="none" d="
M457.616150,763.925537 
	C471.846375,764.271606 485.703033,763.982666 499.433167,765.164001 
	C509.715302,766.048767 518.255859,770.875305 521.145630,782.038269 
	C525.077209,797.225708 515.874207,809.635925 498.919403,812.032715 
	C495.957153,812.451477 492.966888,812.895691 489.986115,812.920776 
	C478.008759,813.021667 466.030060,812.962585 452.980652,812.962585 
	C454.347778,811.967773 454.849579,811.373230 455.474609,811.182556 
	C464.019684,808.575256 464.124268,808.478516 464.144928,799.881165 
	C464.164124,791.881775 464.189148,783.881958 464.131622,775.882935 
	C464.079559,768.638428 463.423737,767.869873 456.393799,765.889465 
	C455.534821,765.647461 454.726349,765.226013 454.010956,764.128174 
	C455.070038,764.059448 456.129120,763.990784 457.616150,763.925537 
M505.994598,785.664978 
	C505.613251,769.112732 498.867615,763.691467 479.326355,766.493469 
	C479.326355,781.179871 479.326355,795.883545 479.326355,810.823730 
	C483.954926,810.823730 488.442566,811.263245 492.809662,810.724915 
	C500.096436,809.826782 503.864410,805.915649 505.059387,798.470032 
	C505.686218,794.564270 505.705627,790.560974 505.994598,785.664978 
z" data-index="4" style="visibility: visible; opacity: 1;"></path>
<path fill="#F4F4F4" opacity="1.000000" stroke="none" d="
M679.305420,763.922241 
	C681.054260,763.922485 682.377991,763.922485 683.963257,763.922485 
	C683.963257,769.507019 683.963257,774.912476 683.963257,780.317871 
	C680.801514,774.488708 678.338501,767.798218 670.929138,766.626160 
	C664.594177,765.623962 658.058716,765.889221 651.377991,765.583130 
	C651.377991,772.688904 651.377991,779.130737 651.375244,785.573669 
	C660.010437,787.544006 662.431763,786.048584 668.948975,775.184692 
	C668.948975,779.196289 668.948914,783.207947 668.948914,787.219543 
	C668.948914,791.176575 668.948975,795.133545 668.948975,799.090576 
	C668.599182,799.500610 668.249390,799.910583 667.899597,800.320618 
	C665.903015,790.867676 660.576050,786.790771 651.388672,788.430176 
	C651.388672,795.805115 651.388672,803.074829 651.388672,811.483215 
	C658.088867,810.944946 664.919861,811.162659 671.356628,809.674927 
	C678.550171,808.012207 680.922241,800.914246 684.559204,795.145264 
	C684.559204,800.848328 684.559204,806.551453 684.559204,812.653320 
	C665.160400,812.653320 645.604858,812.653320 625.384277,812.653320 
	C626.458069,811.951660 627.075928,811.315796 627.816223,811.100037 
	C635.514038,808.856506 636.082275,808.225586 636.140442,800.500122 
	C636.200623,792.505493 636.164917,784.509888 636.146423,776.514832 
	C636.128174,768.622620 635.623474,767.996643 628.044495,765.835022 
	C627.152954,765.580750 626.335632,765.066101 625.567383,763.922058 
	C643.338379,763.922058 661.109375,763.922058 679.305420,763.922241 
z" data-index="5" style="visibility: visible; opacity: 1;"></path>
<path fill="#F5F5F5" opacity="1.000000" stroke="none" d="
M1164.000000,763.901001 
	C1173.295044,763.900940 1182.090210,763.900940 1190.919678,763.900940 
	C1190.919678,769.692444 1190.919678,775.087036 1190.919678,781.190979 
	C1183.247559,764.244507 1179.221069,765.165344 1158.340210,766.332153 
	C1158.340210,772.781250 1158.340210,779.235962 1158.340210,785.660156 
	C1166.658691,787.236450 1170.329346,785.503845 1174.673096,778.455566 
	C1175.256714,785.319214 1175.840210,792.182922 1176.423828,799.046631 
	C1175.956299,799.420715 1175.488770,799.794861 1175.021240,800.168945 
	C1172.815308,791.114502 1167.749268,786.620789 1158.432129,788.519470 
	C1158.432129,795.856140 1158.432129,803.253235 1158.432129,810.651978 
	C1175.921631,811.164551 1181.683716,814.081665 1191.485718,794.229980 
	C1191.485718,800.895569 1191.485718,806.702209 1191.485718,812.721680 
	C1171.956543,812.721680 1152.484375,812.721680 1132.832642,812.721680 
	C1133.126099,812.115234 1133.192261,811.674561 1133.399902,811.592590 
	C1143.136719,807.750000 1143.143188,807.753662 1143.144897,797.024109 
	C1143.145996,790.031494 1143.163940,783.038696 1143.112549,776.046387 
	C1143.058105,768.635803 1142.298462,767.728760 1135.058838,765.838196 
	C1134.307739,765.642029 1133.607666,765.250305 1132.954712,763.901123 
	C1143.136475,763.901123 1153.318237,763.901123 1164.000000,763.901001 
z" data-index="6" style="visibility: visible; opacity: 1;"></path>
<path fill="#F4F4F4" opacity="1.000000" stroke="none" d="
M886.995605,763.936646 
	C891.158813,763.940674 894.823181,763.924438 898.487610,763.911804 
	C899.817688,763.907227 901.147705,763.911133 903.548584,763.911133 
	C892.424805,779.719971 881.713440,794.942688 870.796509,810.457642 
	C886.905334,813.354614 898.352112,808.770142 903.474365,792.345032 
	C903.474365,799.023193 903.474365,805.701294 903.474365,812.713013 
	C886.307068,812.713013 869.236572,812.713013 851.255005,812.713013 
	C862.162598,797.154236 872.838379,781.926208 883.514160,766.698242 
	C883.339294,766.166138 883.164429,765.634033 882.989563,765.101990 
	C876.759888,766.000427 869.616760,765.319946 864.559814,768.245544 
	C859.595032,771.117737 856.750244,777.654480 853.258301,782.213257 
	C853.258301,776.858337 853.258301,770.657898 853.258301,763.917908 
	C864.313782,763.917908 875.405334,763.917908 886.995605,763.936646 
z" data-index="7" style="visibility: visible;"></path>
<path fill="#F6F6F6" opacity="1.000000" stroke="none" d="
M1066.151245,789.996521 
	C1066.145752,785.005615 1066.159668,780.513245 1066.129883,776.021179 
	C1066.080444,768.584351 1065.582642,767.975952 1058.085938,765.785461 
	C1057.381470,765.579773 1056.718872,765.231262 1056.167603,764.249573 
	C1068.149536,764.249573 1080.131470,764.249573 1093.028442,764.249573 
	C1091.494507,764.989929 1090.675781,765.572327 1089.768677,765.793579 
	C1082.118408,767.659729 1081.201782,768.745605 1081.181763,776.613831 
	C1081.153076,787.923828 1081.174438,799.234009 1081.174438,810.536133 
	C1094.364014,811.468628 1103.884521,813.893860 1111.388184,793.517944 
	C1111.388184,799.792053 1111.388184,806.066101 1111.388184,812.693237 
	C1093.083740,812.693237 1074.543945,812.693237 1054.831421,812.693237 
	C1056.604614,811.839539 1057.435059,811.290649 1058.348145,811.023865 
	C1065.344604,808.980042 1066.155029,807.914246 1066.157715,800.477783 
	C1066.158936,797.150269 1066.153442,793.822754 1066.151245,789.996521 
z" data-index="8" style="visibility: visible; opacity: 1;"></path>
<path fill="#F3F3F3" opacity="1.000000" stroke="none" d="
M564.831299,777.793640 
	C567.477600,772.656982 570.123840,767.520325 573.254395,761.443726 
	C575.874939,765.863892 578.040283,769.461670 580.152832,773.090149 
	C586.171509,783.427795 591.975586,793.897888 598.285156,804.054321 
	C600.330811,807.347107 603.678406,809.830994 606.283752,812.532654 
	C596.611694,812.532654 586.002686,812.532654 575.328735,812.532654 
	C575.513794,812.174316 575.585571,811.765198 575.784241,811.689575 
	C583.498901,808.752380 584.028381,807.259949 579.248230,800.711365 
	C578.522278,799.716797 576.940674,798.826477 575.729553,798.792725 
	C569.087463,798.607666 562.437622,798.704529 555.940735,798.704529 
	C552.717773,805.848389 553.305176,807.083496 562.702820,812.686279 
	C555.351746,812.686279 548.580566,812.686279 541.809387,812.686279 
	C549.589539,808.979614 551.724426,801.085022 556.139893,794.426819 
	C556.810913,794.585388 557.015808,794.913025 557.150635,795.656555 
	C563.443787,796.473999 569.807068,796.875549 577.756042,797.377136 
	C573.252686,790.311768 569.667908,784.687561 565.799683,778.939270 
	C565.288025,778.474731 565.059692,778.134155 564.831299,777.793640 
z" data-index="9" style="visibility: visible; opacity: 1;"></path>
<path fill="#F3F3F3" opacity="1.000000" stroke="none" d="
M1233.930908,777.849243 
	C1236.529175,772.699768 1239.127441,767.550293 1242.188599,761.483215 
	C1243.992188,764.448181 1245.341187,766.593384 1246.619385,768.780029 
	C1253.158447,779.965515 1259.504395,791.269531 1266.301392,802.295532 
	C1268.680298,806.154541 1272.153809,809.338745 1274.865479,812.523315 
	C1265.613647,812.523315 1255.002319,812.523315 1243.981812,812.523315 
	C1244.569824,811.980469 1244.835449,811.563049 1245.206909,811.419861 
	C1247.790649,810.423889 1251.764282,811.004578 1251.216919,806.411804 
	C1250.673096,801.848328 1247.184692,798.726990 1242.754395,798.693909 
	C1238.262329,798.660461 1233.769287,798.777771 1229.276855,798.766052 
	C1226.851318,798.759705 1224.292358,797.984436 1223.484741,801.624512 
	C1222.703857,805.143799 1223.377930,807.899292 1226.511108,809.778015 
	C1228.016235,810.680603 1229.684570,811.311279 1232.557373,812.669495 
	C1224.384521,812.669495 1217.593140,812.669495 1210.801758,812.669495 
	C1217.852051,809.493896 1220.067627,802.467651 1224.183594,796.301270 
	C1225.061157,796.029480 1225.437988,796.019775 1226.051514,796.385986 
	C1232.677246,796.761963 1239.066040,796.761963 1246.500366,796.761963 
	C1242.379272,790.407654 1238.676880,784.698792 1234.750244,778.851318 
	C1234.327759,778.424805 1234.129395,778.137024 1233.930908,777.849243 
z" data-index="10" style="visibility: visible; opacity: 1;"></path>
<path fill="#EBEBEB" opacity="1.000000" stroke="none" d="
M924.875061,847.050415 
	C923.907532,848.002686 922.720276,849.101074 922.924255,849.783997 
	C925.752686,859.254211 928.772034,868.667358 932.201477,879.543213 
	C935.177307,868.244629 937.759399,858.440735 940.408081,848.384155 
	C938.657959,847.628418 937.074280,846.944519 935.490601,846.260681 
	C935.504700,845.964722 935.518799,845.668762 935.532837,845.372803 
	C939.972351,845.372803 944.411865,845.372803 948.851379,845.372803 
	C941.104858,847.582153 942.331482,854.959656 940.541687,860.420593 
	C937.962769,868.289246 936.153198,876.407166 933.825623,884.363281 
	C933.364868,885.938232 932.047058,887.262329 931.124512,888.702087 
	C930.124207,887.401062 928.741211,886.244507 928.186829,884.775330 
	C924.975586,876.265503 921.959717,867.682068 918.509766,858.101440 
	C914.811340,869.153137 911.441589,879.222839 908.071838,889.292542 
	C907.442017,889.186096 906.812134,889.079651 906.182312,888.973206 
	C905.690796,887.835510 905.109070,886.727600 904.721863,885.555481 
	C901.547791,875.946594 898.397400,866.329773 895.266785,856.706543 
	C893.853149,852.361267 893.713379,847.200012 888.000305,845.132996 
	C893.518494,845.132996 899.036682,845.132996 904.554871,845.132996 
	C904.658203,845.427734 904.761475,845.722534 904.864746,846.017273 
	C903.359680,846.679932 901.854553,847.342529 899.696167,848.292786 
	C902.411804,858.473572 905.151794,868.745789 908.203003,880.184814 
	C910.770020,871.948547 912.987427,865.021851 915.083374,858.058594 
	C917.391907,850.389099 916.987244,849.458862 910.355225,844.863586 
	C912.914673,844.863586 915.474182,844.863586 918.033630,844.863586 
	C920.857544,844.863586 923.681458,844.863586 927.592712,844.863586 
	C926.493713,845.890381 925.897949,846.446899 924.875061,847.050415 
z" data-index="11" style="visibility: visible; opacity: 1;"></path>
<path fill="#F8F8F8" opacity="1.000000" stroke="none" d="
M825.050537,810.080200 
	C827.224548,810.784790 829.016296,811.355469 830.808105,811.926086 
	C830.758240,812.180054 830.708435,812.434021 830.658569,812.687988 
	C818.785400,812.687988 806.912231,812.687988 795.015381,812.687988 
	C795.050049,812.258850 795.044189,811.975159 795.077393,811.970459 
	C805.091919,810.568359 805.769897,803.637268 805.233337,795.534668 
	C804.805664,789.076538 805.155640,782.567749 805.134888,776.081543 
	C805.110840,768.579712 804.588196,767.937500 797.136169,765.828186 
	C796.425659,765.627136 795.765137,765.249512 795.267334,764.255981 
	C807.024414,764.255981 818.781494,764.255981 830.562561,764.255981 
	C830.479431,764.619995 830.476807,765.108032 830.343628,765.146729 
	C820.123840,768.113770 820.141174,768.415588 820.183655,779.959045 
	C820.210571,787.276855 820.144287,794.595337 820.214722,801.912537 
	C820.247681,805.335510 820.715576,808.639221 825.050537,810.080200 
z" data-index="12" style="visibility: visible; opacity: 1;"></path>
<path fill="#F8F8F8" opacity="1.000000" stroke="none" d="
M1337.971191,812.945801 
	C1331.065918,812.866760 1324.001709,813.674377 1317.297607,812.472778 
	C1309.787109,811.126526 1305.246826,805.617859 1304.679321,797.709229 
	C1304.263184,791.910828 1304.201050,786.079407 1304.176636,780.261841 
	C1304.118774,766.530029 1304.248535,768.770691 1292.692749,764.397339 
	C1305.875732,764.397339 1317.726318,764.397339 1329.749634,764.397339 
	C1329.492188,764.699707 1329.281982,765.201416 1328.962646,765.284668 
	C1319.660767,767.708374 1319.097046,768.656067 1319.177734,778.912964 
	C1319.224854,784.905151 1319.089355,790.901245 1319.256348,796.889465 
	C1319.585083,808.684998 1323.951050,812.538879 1336.553711,811.888184 
	C1337.492676,812.307678 1337.731934,812.626770 1337.971191,812.945801 
z" data-index="13" style="visibility: visible; opacity: 1;"></path>
<path fill="#F3F3F3" opacity="1.000000" stroke="none" d="
M967.322144,865.042542 
	C967.323608,869.036865 967.277954,872.537598 967.337463,876.036621 
	C967.405640,880.044678 965.801331,884.839050 971.855347,886.643799 
	C967.686096,886.643799 963.516846,886.643799 959.347656,886.643799 
	C959.289490,886.355774 959.231323,886.067688 959.173157,885.779663 
	C960.726624,885.064575 962.280090,884.349487 963.906494,883.600830 
	C963.906494,871.894104 963.906494,860.236267 963.906494,848.295654 
	C962.492249,847.611633 960.976074,846.878357 959.159668,845.999756 
	C964.864685,843.619690 968.548157,844.670654 971.571533,848.651672 
	C978.166138,857.334900 984.933777,865.886841 992.584045,875.717407 
	C992.584045,865.992737 992.750916,857.637451 992.389160,849.305176 
	C992.339661,848.164307 989.657715,847.137756 987.344238,845.430908 
	C992.287048,845.430908 996.484497,845.430908 1000.681885,845.430908 
	C994.278809,847.064331 996.028381,852.167969 996.009705,856.436707 
	C995.969543,865.602966 996.022278,874.769592 996.008423,883.936035 
	C996.006287,885.355103 995.852661,886.773865 994.691650,888.737732 
	C985.948425,877.649963 977.205200,866.562134 968.461975,855.474365 
	C968.081787,855.502014 967.701599,855.529663 967.321411,855.557312 
	C967.321411,858.554260 967.321411,861.551270 967.322144,865.042542 
z" data-index="14" style="visibility: visible;"></path>
<path fill="#F3F3F3" opacity="1.000000" stroke="none" d="
M1138.091553,887.042053 
	C1135.938232,887.031677 1134.177979,887.031677 1132.417725,887.031677 
	C1132.293335,886.669678 1132.168945,886.307617 1132.044434,885.945618 
	C1133.628784,885.176514 1135.213135,884.407471 1136.860107,883.607971 
	C1136.860107,871.806213 1136.860107,860.009766 1136.860107,848.118408 
	C1135.399902,847.528687 1134.049194,846.983154 1132.655396,846.420227 
	C1135.777466,843.705444 1141.578613,844.424438 1143.804810,847.388733 
	C1150.646240,856.498474 1157.645142,865.490051 1165.648804,874.321167 
	C1165.648804,866.140015 1165.843994,857.949585 1165.453247,849.787109 
	C1165.389404,848.453247 1162.740112,847.243042 1160.615112,845.391296 
	C1165.297241,845.391296 1169.501709,845.391296 1173.706177,845.391296 
	C1166.998413,847.113525 1169.070557,852.478638 1169.032715,856.829163 
	C1168.941895,867.260193 1169.003296,877.692566 1169.003296,888.124390 
	C1168.569214,888.330078 1168.135254,888.535767 1167.701172,888.741455 
	C1158.963013,877.681885 1150.224854,866.622375 1141.486816,855.562866 
	C1141.095459,855.565491 1140.704224,855.568054 1140.312988,855.570679 
	C1140.312988,857.718872 1140.312866,859.867126 1140.312866,862.015320 
	C1140.312866,866.846680 1140.291626,871.678223 1140.319580,876.509399 
	C1140.342163,880.421265 1139.070923,884.979004 1145.712524,885.745422 
	C1145.460938,886.181091 1145.209229,886.616760 1144.957520,887.052429 
	C1142.799927,887.052429 1140.642212,887.052429 1138.091553,887.042053 
z" data-index="15" style="visibility: visible;"></path>
<path fill="#EFEFEF" opacity="1.000000" stroke="none" d="
M876.494019,868.595642 
	C874.335754,885.364380 859.187561,893.478271 845.999939,885.313354 
	C836.017517,879.133057 833.413391,861.831604 840.909912,851.496033 
	C847.393921,842.556335 860.456238,840.881348 869.098755,848.024231 
	C875.422974,853.251099 877.013489,860.364807 876.494019,868.595642 
M857.291809,846.691223 
	C853.180481,846.393555 849.861755,847.783142 847.475403,851.236084 
	C842.371277,858.621521 842.472717,873.406616 847.746399,880.533203 
	C850.437439,884.169678 854.110535,885.652405 858.591492,885.147095 
	C862.811584,884.671082 865.771118,882.331909 866.912537,878.375916 
	C868.181519,873.978027 869.483521,869.424988 869.630798,864.902405 
	C869.940125,855.403137 865.347290,848.749329 857.291809,846.691223 
z" data-index="16" style="visibility: visible; opacity: 1;"></path>
<path fill="#F1F1F1" opacity="1.000000" stroke="none" d="
M687.604309,879.483887 
	C686.487488,877.032532 685.294678,874.979980 684.676208,872.766907 
	C683.361206,868.061401 680.324463,867.207336 675.446838,868.612793 
	C676.977905,874.352234 671.496399,881.634827 681.043213,886.575684 
	C674.651062,886.575684 669.425110,886.575684 664.199158,886.575684 
	C664.120422,886.298523 664.041748,886.021362 663.963013,885.744141 
	C665.531860,885.084106 667.100708,884.424011 669.025085,883.614319 
	C669.025085,872.644470 669.174255,861.522705 668.856750,850.414246 
	C668.811584,848.834595 666.500732,847.319763 664.968201,845.444031 
	C664.890015,845.775085 664.959412,845.197815 665.036011,845.196899 
	C672.105652,845.108582 679.210144,844.620483 686.234741,845.163147 
	C691.488403,845.569031 695.162231,849.745361 695.733459,854.618103 
	C696.426147,860.527039 693.470154,864.381042 687.647034,866.843994 
	C692.392700,873.239197 691.826294,882.798401 700.974731,886.013794 
	C695.980408,889.883850 691.359436,887.661560 687.604309,879.483887 
M685.521973,848.822327 
	C682.290222,848.314575 679.058411,847.806763 675.574463,847.259399 
	C675.574463,853.962891 675.574463,859.382874 675.574463,864.736755 
	C681.265747,866.339905 686.395569,865.008728 688.554321,861.175720 
	C691.124878,856.611267 690.014221,852.573669 685.521973,848.822327 
z" data-index="17" style="visibility: visible; opacity: 1;"></path>
<path fill="#F1F1F1" opacity="1.000000" stroke="none" d="
M1073.896973,886.130981 
	C1069.074585,889.133301 1064.687012,887.682800 1061.851807,882.130615 
	C1059.589478,877.700439 1057.734863,873.061890 1055.594604,868.281982 
	C1053.611084,868.281982 1051.495972,868.281982 1048.409180,868.281982 
	C1048.409180,872.888367 1048.072754,877.667908 1048.616821,882.345093 
	C1048.777100,883.722290 1051.429199,884.809570 1053.642090,886.597656 
	C1047.689941,886.597656 1042.427856,886.597656 1037.165894,886.597656 
	C1037.090210,886.314209 1037.014404,886.030762 1036.938721,885.747314 
	C1038.495605,885.086182 1040.052368,884.425049 1041.995117,883.600098 
	C1041.995117,877.799561 1041.994995,871.834961 1041.994995,865.870422 
	C1041.994995,860.041992 1041.995117,854.213562 1041.995117,848.240601 
	C1040.516846,847.580017 1039.083008,846.939331 1037.412598,846.192932 
	C1037.922119,845.568542 1038.192749,844.935730 1038.481689,844.927307 
	C1044.130615,844.761414 1049.793701,844.389832 1055.429565,844.628601 
	C1062.966919,844.947876 1067.403320,848.258545 1068.664062,853.794922 
	C1069.831787,858.922852 1067.560791,862.903015 1061.044312,866.997986 
	C1062.798340,870.874634 1064.593140,874.759216 1066.316772,878.675049 
	C1067.830078,882.113159 1069.844727,884.969055 1073.896973,886.130981 
M1057.755249,864.528564 
	C1062.635986,861.323975 1064.158936,856.860474 1061.926880,852.302368 
	C1059.769165,847.896057 1054.567627,846.406860 1048.587646,848.472778 
	C1048.587646,853.920776 1048.587646,859.360229 1048.587646,865.604370 
	C1051.604004,865.350647 1054.333008,865.121094 1057.755249,864.528564 
z" data-index="18" style="visibility: visible; opacity: 1;"></path>
<path fill="#EBEBEB" opacity="1.000000" stroke="none" d="
M586.211060,858.370728 
	C582.146729,862.178406 582.132507,865.645630 585.545410,869.636841 
	C587.681335,872.134644 588.929260,875.377747 590.979797,877.966309 
	C593.385254,881.002747 596.229187,883.691833 598.820129,886.464355 
	C594.116455,886.464355 588.354431,886.464355 581.152954,886.464355 
	C583.644165,885.248840 585.087524,884.544556 587.008545,883.607239 
	C584.119507,879.018005 581.270325,874.492004 577.897644,869.134399 
	C574.308411,874.196655 571.118469,878.695801 567.742920,883.456665 
	C569.384766,884.363770 570.789062,885.139709 572.193359,885.915588 
	C572.106567,886.194336 572.019775,886.473083 571.932922,886.751831 
	C567.541077,886.751831 563.149170,886.751831 558.757324,886.751831 
	C566.968811,883.264709 569.154053,874.762939 574.229614,868.863953 
	C575.107422,867.843750 575.117737,865.150513 574.401794,863.851074 
	C571.762451,859.061157 568.852417,854.383362 565.616089,849.977783 
	C564.305298,848.193298 561.894592,847.216919 559.087463,845.241699 
	C565.516174,845.241699 571.114075,845.241699 576.712036,845.241699 
	C576.833923,845.508057 576.955872,845.774353 577.077759,846.040710 
	C575.638062,846.649170 574.198364,847.257568 572.154236,848.121460 
	C574.837463,852.497192 577.473572,856.796082 580.340820,861.471924 
	C583.645935,856.894653 586.695251,852.671631 589.929565,848.192444 
	C588.315613,847.506287 587.021912,846.956238 585.728149,846.406250 
	C585.739319,846.079590 585.750427,845.752930 585.761597,845.426270 
	C590.084045,845.426270 594.406494,845.426270 598.728943,845.426270 
	C592.038269,847.139832 590.253357,853.621155 586.211060,858.370728 
z" data-index="19" style="visibility: visible;"></path>
<path fill="#EFEFEF" opacity="1.000000" stroke="none" d="
M809.369995,884.602295 
	C810.848633,883.178528 812.541016,881.990112 812.827942,880.526184 
	C813.329651,877.965820 812.967834,875.236145 812.967834,872.388611 
	C811.391785,871.682800 809.850159,870.992493 808.308533,870.302124 
	C808.368286,869.981445 808.427979,869.660767 808.487732,869.340088 
	C813.598022,869.340088 818.708313,869.340088 823.818665,869.340088 
	C817.760498,870.768005 819.162964,875.465515 819.376282,879.280396 
	C819.577820,882.885315 818.684204,884.958984 814.925293,886.229919 
	C805.933044,889.270264 797.389893,889.546997 790.446655,882.255615 
	C783.371094,874.825317 783.155029,865.485291 786.445618,856.567139 
	C789.697937,847.752686 797.266357,843.998657 806.535950,843.789612 
	C808.195374,843.752136 809.862732,843.867981 811.520569,843.992310 
	C820.478455,844.664062 822.317688,848.893311 816.277832,858.203552 
	C815.702454,855.266235 815.627319,853.272522 814.884399,851.570190 
	C814.220764,850.049500 813.075195,848.102112 811.701904,847.633484 
	C803.936462,844.983826 795.508484,849.156372 793.270691,857.448792 
	C791.971497,862.262878 791.748047,867.727234 792.527771,872.664001 
	C793.942078,881.619324 799.680359,885.364014 809.369995,884.602295 
z" data-index="20" style="visibility: visible; opacity: 1;"></path>
<path fill="#EFEFEF" opacity="1.000000" stroke="none" d="
M1102.870483,863.864990 
	C1104.681274,863.864929 1105.991211,863.864929 1107.180664,863.864929 
	C1107.986206,861.816528 1108.669556,860.078796 1109.352905,858.341003 
	C1109.738525,858.404663 1110.124268,858.468262 1110.510010,858.531860 
	C1110.510010,863.086304 1110.510010,867.640686 1110.510010,872.195129 
	C1110.271484,872.348389 1110.032959,872.501587 1109.794312,872.654846 
	C1108.929688,871.002319 1108.065063,869.349792 1107.017456,867.347595 
	C1103.982910,867.347595 1100.558594,867.347595 1096.756104,867.347595 
	C1096.756104,872.856750 1096.756104,878.262329 1096.756104,883.919434 
	C1102.246094,883.919434 1107.702759,883.919434 1113.588989,883.919434 
	C1114.174927,881.545593 1114.825195,878.910767 1115.475586,876.275879 
	C1115.978271,876.235840 1116.480835,876.195801 1116.983521,876.155701 
	C1117.437744,879.604065 1117.891968,883.052368 1118.353882,886.559814 
	C1106.966431,886.559814 1096.249756,886.559814 1085.533081,886.559814 
	C1085.487549,886.240784 1085.442017,885.921753 1085.396484,885.602722 
	C1086.845215,885.018738 1088.294067,884.434753 1089.880737,883.795227 
	C1089.880737,871.963501 1089.880737,860.164124 1089.880737,848.182129 
	C1088.486694,847.562683 1087.049438,846.923950 1085.612183,846.285278 
	C1085.658936,845.976624 1085.705688,845.668030 1085.752441,845.359436 
	C1095.784790,845.359436 1105.817017,845.359436 1116.314819,845.359436 
	C1116.129272,848.757629 1115.941772,852.191345 1115.754272,855.625061 
	C1115.093628,855.662598 1114.433105,855.700134 1113.772583,855.737610 
	C1113.110474,853.181152 1112.448242,850.624634 1111.740112,847.890747 
	C1106.660156,847.890747 1101.750732,847.890747 1096.717407,847.890747 
	C1096.717407,853.239502 1096.717407,858.308716 1096.717407,863.865112 
	C1098.807007,863.865112 1100.588257,863.865112 1102.870483,863.864990 
z" data-index="21" style="visibility: visible; opacity: 1;"></path>
<path fill="#EBEBEB" opacity="1.000000" stroke="none" d="
M621.238831,878.049133 
	C624.570923,884.000732 629.616943,886.236511 635.628174,884.781921 
	C640.165161,883.684082 642.788879,880.078186 643.011536,873.688171 
	C643.278015,866.040894 643.378479,858.369934 643.031738,850.732788 
	C642.952393,848.985474 640.749817,847.334656 639.301514,845.331177 
	C643.050415,845.331177 647.186462,845.331177 651.322510,845.331177 
	C644.584290,847.420837 647.036072,852.958923 646.821106,857.406677 
	C646.508240,863.879639 646.738708,870.400146 646.059082,876.828552 
	C645.282166,884.176636 641.090698,887.666321 633.800232,888.058167 
	C632.471924,888.129578 631.137756,888.132629 629.807007,888.114075 
	C619.169922,887.966248 614.558411,883.735840 614.165466,873.102478 
	C613.864624,864.961121 614.105652,856.799683 614.105652,848.350830 
	C612.636841,847.705994 611.198120,847.074341 609.759399,846.442688 
	C609.775208,846.132141 609.791077,845.821533 609.806885,845.510986 
	C614.905396,845.510986 620.003906,845.510986 625.102417,845.510986 
	C618.949463,847.148132 620.497009,852.073120 620.548096,856.208252 
	C620.636536,863.353882 620.922058,870.497009 621.238831,878.049133 
z" data-index="22" style="visibility: visible;"></path>
<path fill="#EBEBEB" opacity="1.000000" stroke="none" d="
M511.028809,863.991089 
	C511.028595,858.504822 511.028595,853.515259 511.028595,848.331970 
	C509.545593,847.584167 508.065369,846.837769 506.585144,846.091309 
	C506.652954,845.782288 506.720734,845.473206 506.788544,845.164185 
	C511.958496,845.164185 517.128479,845.164185 522.298462,845.164185 
	C515.886536,846.902405 517.509949,851.945740 517.538391,856.138489 
	C517.582336,862.618958 517.563416,869.116699 518.039673,875.572571 
	C518.510986,881.961853 522.256531,884.862427 529.212280,884.980774 
	C535.538086,885.088440 539.427856,882.159912 539.774658,875.641602 
	C540.259216,866.534729 539.896912,857.382751 539.896912,848.093018 
	C538.584595,847.510254 537.176941,846.885132 535.769348,846.260010 
	C535.817993,845.934387 535.866638,845.608765 535.915344,845.283142 
	C540.054199,845.283142 544.192993,845.283142 548.331848,845.283142 
	C542.103149,847.222900 543.945740,852.286072 543.804565,856.548218 
	C543.579102,863.354370 543.722290,870.202148 542.988708,876.954041 
	C542.185120,884.350891 538.083618,887.669739 530.689270,888.045105 
	C529.195068,888.120911 527.694641,888.140625 526.198853,888.107422 
	C516.373901,887.889587 511.957916,883.773132 511.212250,873.964111 
	C510.973145,870.818848 511.080322,867.647278 511.028809,863.991089 
z" data-index="23" style="visibility: visible;"></path>
<path fill="#EBEBEB" opacity="1.000000" stroke="none" d="
M1336.440918,859.658447 
	C1340.731689,861.924133 1344.725952,863.942505 1348.696289,866.006775 
	C1353.409180,868.457153 1355.066040,872.659973 1354.778442,877.622314 
	C1354.490479,882.592102 1351.031982,885.298462 1346.753906,886.779419 
	C1340.238403,889.035034 1333.707642,888.496155 1326.523193,885.923950 
	C1327.312012,882.342163 1328.077148,878.867920 1328.842163,875.393738 
	C1329.521973,875.443787 1330.201660,875.493835 1330.881348,875.543884 
	C1331.389771,878.196228 1331.898315,880.848572 1332.550049,884.247925 
	C1335.644531,884.247925 1339.056641,884.866882 1342.076782,884.045227 
	C1344.350830,883.426514 1347.619141,881.079895 1347.761353,879.289185 
	C1347.966675,876.705933 1346.383057,873.225220 1344.392944,871.410156 
	C1341.794556,869.040222 1338.038330,867.951721 1334.806396,866.261780 
	C1328.924561,863.186157 1326.338745,858.895020 1327.112793,853.590881 
	C1327.831543,848.666260 1331.570679,845.184082 1338.103027,844.444763 
	C1342.764038,843.917297 1347.532959,844.342346 1353.369019,844.342346 
	C1352.415894,849.221130 1351.756226,852.597534 1351.096680,855.973999 
	C1350.569824,856.049927 1350.043091,856.125916 1349.516357,856.201843 
	C1348.995728,854.954956 1348.253418,853.750488 1348.004517,852.451477 
	C1347.594238,850.311890 1348.610229,847.495361 1345.034912,847.175598 
	C1341.005493,846.815247 1336.872192,846.449646 1334.194702,850.334961 
	C1332.281860,853.110657 1332.490112,855.977966 1334.993164,858.463867 
	C1335.345947,858.814209 1335.752319,859.110291 1336.440918,859.658447 
z" data-index="24" style="visibility: visible; opacity: 1;"></path>
<path fill="#EBEBEB" opacity="1.000000" stroke="none" d="
M1270.571899,884.513672 
	C1271.683594,885.078369 1272.438354,885.490295 1273.193237,885.902161 
	C1273.124023,886.178162 1273.054810,886.454163 1272.985596,886.730164 
	C1267.645264,886.730164 1262.305054,886.730164 1256.964722,886.730164 
	C1256.884888,886.446777 1256.805054,886.163391 1256.725220,885.879944 
	C1258.192627,885.181885 1259.660156,884.483826 1261.730225,883.499023 
	C1258.400879,879.844360 1260.930786,872.325439 1252.655518,872.551941 
	C1242.633179,872.826355 1242.627930,872.636353 1239.844116,883.689941 
	C1241.246216,884.308960 1242.677246,884.940735 1244.108276,885.572510 
	C1244.068970,885.885803 1244.029663,886.199036 1243.990479,886.512329 
	C1239.703979,886.512329 1235.417480,886.512329 1231.856567,886.512329 
	C1241.519531,876.085327 1242.112183,861.215942 1247.989136,848.702087 
	C1248.856201,846.855774 1249.667236,844.983154 1251.139648,841.709839 
	C1252.546631,844.563110 1253.387695,846.021057 1254.008423,847.567322 
	C1258.391357,858.486084 1262.678101,869.443909 1267.140015,880.330078 
	C1267.758911,881.840088 1269.170410,883.025269 1270.571899,884.513672 
M1246.982544,861.528137 
	C1246.250977,863.866943 1245.519409,866.205750 1244.691772,868.851990 
	C1248.477417,868.851990 1251.825195,868.851990 1255.669434,868.851990 
	C1253.703491,863.553284 1251.900146,858.693054 1249.776001,852.968201 
	C1248.703247,856.194092 1247.946289,858.470276 1246.982544,861.528137 
z" data-index="25" style="visibility: visible; opacity: 1;"></path>
<path fill="#F1F1F1" opacity="1.000000" stroke="none" d="
M736.221558,887.176514 
	C731.282898,887.175110 726.708496,887.175110 722.134033,887.175110 
	C722.043396,886.851135 721.952820,886.527161 721.862183,886.203247 
	C722.513916,885.779236 723.174500,885.368164 723.815308,884.928345 
	C724.834778,884.228821 726.753784,883.447144 726.709961,882.809021 
	C726.318359,877.113464 726.576904,871.077820 724.673340,865.861450 
	C722.610474,860.208557 718.609314,855.205627 715.093140,850.170837 
	C713.822205,848.350891 711.507935,847.259583 709.023987,845.335632 
	C714.924744,845.335632 720.362793,845.335632 727.404114,845.335632 
	C724.568726,846.629883 723.065308,847.316162 721.174316,848.179382 
	C724.341064,853.651367 727.439880,859.005859 730.939758,865.053406 
	C734.431152,859.097473 737.503235,853.856812 740.706665,848.392090 
	C739.263428,847.640442 737.926636,846.944214 736.589844,846.247986 
	C736.629272,845.926819 736.668701,845.605591 736.708130,845.284424 
	C741.041931,845.284424 745.375732,845.284424 749.530457,845.284424 
	C737.862183,855.067932 730.950867,867.168762 733.445862,883.657776 
	C734.465210,883.997131 735.874573,884.411499 737.198425,885.013916 
	C737.301208,885.060730 736.804077,886.425720 736.221558,887.176514 
z" data-index="26" style="visibility: visible;"></path>
<path fill="#E5E5E5" opacity="1.000000" stroke="none" d="
M1220.678223,855.756165 
	C1218.852783,853.471008 1217.366943,850.940186 1215.571045,847.881348 
	C1213.556274,847.881348 1210.603271,847.881348 1207.291504,847.881348 
	C1207.291504,859.772095 1207.291504,871.661682 1207.291504,883.635986 
	C1208.766846,884.304749 1210.310547,885.004395 1211.854126,885.704102 
	C1211.794434,886.021301 1211.734619,886.338562 1211.674927,886.655823 
	C1206.337891,886.655823 1201.000732,886.655823 1195.663696,886.655823 
	C1195.563599,886.331482 1195.463501,886.007141 1195.363403,885.682800 
	C1196.896240,885.035828 1198.429077,884.388794 1200.158691,883.658691 
	C1200.158691,871.967773 1200.158691,860.195129 1200.158691,848.043213 
	C1197.438599,848.043213 1194.685547,848.043213 1191.516479,848.043213 
	C1190.634766,850.583252 1189.623291,853.497314 1188.611694,856.411377 
	C1188.077759,856.275635 1187.543701,856.139832 1187.009766,856.004028 
	C1186.678589,852.476501 1186.347412,848.948975 1185.987793,845.118286 
	C1197.995483,845.118286 1209.566528,845.118286 1221.707886,845.118286 
	C1221.471191,848.682617 1221.244385,852.096558 1220.678223,855.756165 
z" data-index="27" style="visibility: visible;"></path>
<path fill="#F6F6F6" opacity="1.000000" stroke="none" d="
M1285.436523,844.862793 
	C1290.513306,844.694763 1295.267090,844.694763 1300.020996,844.694763 
	C1292.805054,847.867310 1295.682861,853.978943 1295.504150,858.807983 
	C1295.204102,866.914368 1295.422119,875.039978 1295.422119,883.460693 
	C1300.413330,883.460693 1304.839600,883.460693 1309.528198,883.460693 
	C1310.242065,881.224365 1311.013306,878.808472 1311.784546,876.392578 
	C1312.335449,876.388000 1312.886475,876.383362 1313.437500,876.378723 
	C1313.756348,879.710449 1314.075195,883.042114 1314.432983,886.781006 
	C1304.222900,886.781006 1294.405884,886.781006 1284.588867,886.781006 
	C1284.507690,886.510071 1284.426514,886.239136 1284.345337,885.968201 
	C1285.838867,885.201172 1287.332397,884.434143 1288.928467,883.614380 
	C1288.928467,871.865356 1288.928467,860.068298 1288.928467,849.191162 
	C1287.332886,847.450989 1286.223389,846.240906 1285.436523,844.862793 
z" data-index="28" style="visibility: visible; opacity: 1;"></path>
<path fill="#F6F6F6" opacity="1.000000" stroke="none" d="
M476.369110,877.049683 
	C476.460693,879.503235 476.552277,881.448730 476.652344,883.574219 
	C481.575806,883.574219 486.001587,883.574219 490.544220,883.574219 
	C491.325348,881.059937 492.075867,878.644104 492.826416,876.228210 
	C493.448761,876.248840 494.071136,876.269531 494.693481,876.290161 
	C494.887665,879.645386 495.081818,883.000610 495.300568,886.780273 
	C485.236176,886.780273 475.461761,886.780273 465.687347,886.780273 
	C465.585785,886.489807 465.484222,886.199341 465.382629,885.908875 
	C466.865601,885.168152 468.348541,884.427429 469.937012,883.633972 
	C469.937012,871.878174 469.937012,860.083679 469.937012,848.136475 
	C468.481384,847.557556 467.052948,846.989441 465.624481,846.421387 
	C465.661926,846.080078 465.699371,845.738770 465.736786,845.397461 
	C470.806091,845.397461 475.875397,845.397461 480.944672,845.397461 
	C474.774811,847.028931 476.457397,851.971497 476.409088,856.077148 
	C476.328857,862.897888 476.375763,869.720032 476.369110,877.049683 
z" data-index="29" style="visibility: visible;"></path>
<path fill="#F3F3F3" opacity="1.000000" stroke="none" d="
M1348.086792,801.008423 
	C1348.197144,795.184814 1348.142334,789.352356 1348.456543,783.539734 
	C1348.924805,774.878357 1347.668701,767.343872 1337.780396,764.224670 
	C1345.467041,764.224670 1353.153687,764.224670 1360.894531,764.224670 
	C1360.789062,764.623840 1360.779175,765.111572 1360.630859,765.158142 
	C1352.196289,767.804016 1349.835571,773.983948 1350.214966,782.166565 
	C1350.491943,788.141479 1350.109863,794.146912 1349.646240,800.580200 
	C1348.876221,801.017212 1348.481445,801.012817 1348.086792,801.008423 
z" data-index="30" style="visibility: visible;"></path>
<path fill="#E5E5E5" opacity="1.000000" stroke="none" d="
M725.581299,688.427002 
	C724.041748,688.004395 722.864380,687.483826 721.324036,686.973999 
	C725.370667,684.696716 729.780212,682.408691 734.820557,680.074951 
	C736.016724,679.594177 736.582092,679.159180 737.147461,678.724182 
	C737.297607,678.572571 737.447754,678.420959 738.198486,678.219849 
	C739.549194,677.605225 740.299316,677.040100 741.049438,676.474976 
	C742.446106,675.597656 743.842712,674.720276 745.716553,674.167603 
	C746.247681,674.818420 746.301636,675.144592 746.355530,675.470703 
	C739.551514,679.756836 732.747498,684.042908 725.581299,688.427002 
z" data-index="31" style="visibility: visible;"></path>
<path fill="#B0B0B0" opacity="1.000000" stroke="none" d="
M746.697327,675.387939 
	C746.301636,675.144592 746.247681,674.818420 746.039551,674.020996 
	C750.572510,670.370789 755.259705,667.191772 759.946899,664.012817 
	C760.146667,664.286316 760.346436,664.559814 760.546204,664.833252 
	C756.043823,668.323914 751.541504,671.814575 746.697327,675.387939 
z" data-index="32" style="visibility: visible;"></path>
<path fill="#B0B0B0" opacity="1.000000" stroke="none" d="
M1347.899292,801.292236 
	C1348.481445,801.012817 1348.876221,801.017212 1349.566040,800.983643 
	C1348.819214,807.443787 1344.448486,810.864197 1338.337158,812.979675 
	C1337.731934,812.626770 1337.492676,812.307678 1336.974609,811.846680 
	C1341.602905,809.672058 1345.839478,806.909668 1347.899292,801.292236 
z" data-index="33" style="visibility: visible;"></path>
<path fill="#E5E5E5" opacity="1.000000" stroke="none" d="
M1233.657715,778.057495 
	C1234.129395,778.137024 1234.327759,778.424805 1234.635254,779.182373 
	C1231.767822,785.104736 1228.791260,790.557434 1225.814697,796.010071 
	C1225.437988,796.019775 1225.061157,796.029480 1224.401855,796.038940 
	C1227.207642,790.114380 1230.296143,784.190125 1233.657715,778.057495 
z" data-index="34" style="visibility: visible;"></path>
<path fill="#B0B0B0" opacity="1.000000" stroke="none" d="
M564.540466,777.976074 
	C565.059692,778.134155 565.288025,778.474731 565.692383,779.271973 
	C562.985840,784.899414 560.103333,790.070007 557.220764,795.240601 
	C557.015808,794.913025 556.810913,794.585388 556.335754,794.150391 
	C558.793518,788.748108 561.521545,783.453369 564.540466,777.976074 
z" data-index="35" style="visibility: visible;"></path>
<path fill="#B0B0B0" opacity="1.000000" stroke="none" d="
M740.774414,676.540466 
	C740.299316,677.040100 739.549194,677.605225 738.508423,678.140015 
	C738.978271,677.608398 739.738831,677.107178 740.774414,676.540466 
z" data-index="36" style="visibility: visible;"></path>
<path fill="#E5E5E5" opacity="1.000000" stroke="none" d="
M722.223999,690.360535 
	C722.484680,689.910706 723.010071,689.456177 723.820190,689.022339 
	C723.566223,689.480591 723.027405,689.918152 722.223999,690.360535 
z" data-index="37" style="visibility: visible;"></path>
<path fill="#B0B0B0" opacity="1.000000" stroke="none" d="
M736.875427,678.731934 
	C736.582092,679.159180 736.016724,679.594177 735.169434,679.980103 
	C735.459595,679.533936 736.031494,679.136780 736.875427,678.731934 
z" data-index="38" style="visibility: visible;"></path>

<path fill="#020202" opacity="1.000000" stroke="none" d="
M302.480347,744.551575 
	C299.745331,746.152039 297.308167,747.537231 294.157806,749.327698 
	C293.803223,746.094604 293.273529,743.415161 293.253204,740.731812 
	C293.118195,722.915771 293.237000,705.096680 292.967529,687.283264 
	C292.839996,678.851746 292.037750,670.430481 291.478699,660.945007 
	C301.014526,658.166321 310.217834,655.120850 319.605103,652.829224 
	C336.205719,648.776611 353.087677,646.930054 370.024170,650.148987 
	C375.937744,651.272888 381.774567,653.743042 387.145569,656.554993 
	C394.869202,660.598633 397.010468,668.034363 391.830170,675.010559 
	C386.031738,682.819214 379.545624,690.385437 372.215240,696.737549 
	C350.907288,715.201904 326.753387,729.673035 302.480347,744.551575 
z" data-index="40" style="visibility: hidden; opacity: 1;"></path>

<path fill="#070707" opacity="1.000000" stroke="none" d="
M301.312439,761.282104 
	C325.706787,750.847778 350.485321,742.918518 375.896973,737.016785 
	C376.218689,737.412109 376.540405,737.807434 376.862122,738.202759 
	C375.889801,739.933655 375.179291,741.892456 373.902863,743.358582 
	C365.393555,753.132507 356.851837,762.882935 348.063721,772.403748 
	C346.929565,773.632507 344.252106,774.095032 342.398254,773.896667 
	C328.044434,772.360596 313.717407,770.574463 299.382019,768.866028 
	C298.391541,768.748047 297.314453,768.836365 296.432953,768.462463 
	C295.436157,768.039612 294.614899,767.202942 293.717285,766.546204 
	C294.468292,765.590210 295.045105,764.365051 296.010468,763.740234 
	C297.523743,762.760742 299.299408,762.186584 301.312439,761.282104 
z" data-index="42" style="visibility: hidden; opacity: 1;"></path>

<path fill="#000000" opacity="1.000000" stroke="none" d="
M337.158752,734.156860 
	C336.405853,734.555298 335.465759,734.744934 334.525635,734.934570 
	C334.490234,734.787170 334.454834,734.639709 334.419403,734.492310 
	C334.956085,734.254822 335.492737,734.017334 336.315552,733.653076 
	C336.724976,733.666809 336.848267,733.807373 337.158752,734.156860 
z" data-index="44" style="visibility: visible;"></path>
<path fill="#000000" opacity="1.000000" stroke="none" d="
M403.166321,720.334656 
	C402.899017,720.442627 402.283417,720.268494 401.858398,719.843018 
	C402.305328,719.745300 402.561676,719.898865 403.166321,720.334656 
z" data-index="45" style="visibility: visible;"></path>
<path fill="#E5E5E5" opacity="1.000000" stroke="none" d="
M712.526367,692.542725 
	C712.476196,692.571411 712.576538,692.514099 712.526367,692.542725 
z" data-index="46" style="visibility: visible;"></path>

<path fill="#090909" opacity="1.000000" stroke="none" d="
M1007.379272,810.925781 
	C1002.833923,810.942627 998.725342,810.942627 994.384888,810.942627 
	C994.384888,803.212280 994.384888,795.814636 994.384888,788.205627 
	C999.487305,788.205627 1004.462219,787.768494 1009.321167,788.331543 
	C1013.950195,788.867920 1017.098572,791.809692 1017.881958,796.723816 
	C1018.707336,801.901184 1016.285095,807.269958 1012.002014,809.441467 
	C1010.694702,810.104248 1009.216248,810.429321 1007.379272,810.925781 
z" data-index="48" style="visibility: hidden; opacity: 1;"></path>

<path fill="#050505" opacity="1.000000" stroke="none" d="
M505.996979,786.133362 
	C505.705627,790.560974 505.686218,794.564270 505.059387,798.470032 
	C503.864410,805.915649 500.096436,809.826782 492.809662,810.724915 
	C488.442566,811.263245 483.954926,810.823730 479.326355,810.823730 
	C479.326355,795.883545 479.326355,781.179871 479.326355,766.493469 
	C498.867615,763.691467 505.613251,769.112732 505.996979,786.133362 
z" data-index="50" style="visibility: hidden; opacity: 1;"></path>

<path fill="#111111" opacity="1.000000" stroke="none" d="
M1226.051514,796.385986 
	C1228.791260,790.557434 1231.767822,785.104736 1234.859375,779.320984 
	C1238.676880,784.698792 1242.379272,790.407654 1246.500366,796.761963 
	C1239.066040,796.761963 1232.677246,796.761963 1226.051514,796.385986 
z" data-index="52" style="visibility: hidden; opacity: 1;"></path>

<path fill="#111111" opacity="1.000000" stroke="none" d="
M685.868042,848.987549 
	C690.014221,852.573669 691.124878,856.611267 688.554321,861.175720 
	C686.395569,865.008728 681.265747,866.339905 675.574463,864.736755 
	C675.574463,859.382874 675.574463,853.962891 675.574463,847.259399 
	C679.058411,847.806763 682.290222,848.314575 685.868042,848.987549 
z" data-index="54" style="visibility: hidden; opacity: 1;"></path>

<path fill="#111111" opacity="1.000000" stroke="none" d="
M1247.085938,861.137329 
	C1247.946289,858.470276 1248.703247,856.194092 1249.776001,852.968201 
	C1251.900146,858.693054 1253.703491,863.553284 1255.669434,868.851990 
	C1251.825195,868.851990 1248.477417,868.851990 1244.691772,868.851990 
	C1245.519409,866.205750 1246.250977,863.866943 1247.085938,861.137329 
z" data-index="56" style="visibility: hidden; opacity: 1;"></path>
</svg>